<svg width="512" height="512" viewBox="0 0 512 512" fill="none" xmlns="http://www.w3.org/2000/svg" role="img" aria-label="Glide">
  <defs>
    <linearGradient id="tile" x1="64" y1="40" x2="448" y2="472" gradientUnits="userSpaceOnUse">
      <stop offset="0" stop-color="#272C34"/>
      <stop offset="1" stop-color="#141619"/>
    </linearGradient>
    <radialGradient id="glow" cx="0" cy="0" r="1" gradientUnits="userSpaceOnUse"
      gradientTransform="translate(300 208) rotate(90) scale(236)">
      <stop offset="0" stop-color="#5CD6C6" stop-opacity="0.30"/>
      <stop offset="0.55" stop-color="#5CD6C6" stop-opacity="0.07"/>
      <stop offset="1" stop-color="#5CD6C6" stop-opacity="0"/>
    </radialGradient>
    <linearGradient id="teal" x1="352" y1="150" x2="212" y2="312" gradientUnits="userSpaceOnUse">
      <stop offset="0" stop-color="#9CF0DA"/>
      <stop offset="0.5" stop-color="#5CD6C6"/>
      <stop offset="1" stop-color="#34AEA6"/>
    </linearGradient>
    <linearGradient id="comet" x1="288" y1="230" x2="104" y2="384" gradientUnits="userSpaceOnUse">
      <stop offset="0" stop-color="#7FE7D3" stop-opacity="0.95"/>
      <stop offset="0.55" stop-color="#4FCBBF" stop-opacity="0.55"/>
      <stop offset="1" stop-color="#3AB4AB" stop-opacity="0"/>
    </linearGradient>
    <radialGradient id="spark" cx="0" cy="0" r="1" gradientUnits="userSpaceOnUse"
      gradientTransform="translate(348 152) scale(30)">
      <stop offset="0" stop-color="#F4FFFB"/>
      <stop offset="0.35" stop-color="#B7F4E6"/>
      <stop offset="1" stop-color="#7FEAD8" stop-opacity="0"/>
    </radialGradient>
  </defs>

  <!-- tile -->
  <rect x="0" y="0" width="512" height="512" rx="118" fill="url(#tile)"/>
  <rect x="0" y="0" width="512" height="512" rx="118" fill="url(#glow)"/>

  <!-- glide comet trail -->
  <path d="M286 232 C220 252 150 300 104 382 C150 320 210 300 250 286 Z" fill="url(#comet)"/>
  <path d="M272 250 Q182 300 126 358" stroke="#8CEBD8" stroke-width="6" stroke-linecap="round" fill="none" opacity="0.45"/>

  <!-- cursor pointer -->
  <polygon points="348,152 348,281.2 314.6,252.3 294,301 276.6,293.4 297.1,244.7 260.6,239.4"
    fill="url(#teal)" stroke="#0E1013" stroke-width="6" stroke-linejoin="round"/>

  <!-- pinch spark at the click point -->
  <circle cx="348" cy="152" r="30" fill="url(#spark)"/>
  <circle cx="348" cy="152" r="8" fill="#F4FFFB"/>

  <!-- accent hairline (echoes the HUD accent rule) -->
  <rect x="3" y="3" width="506" height="506" rx="115" fill="none" stroke="#5CD6C6" stroke-opacity="0.16" stroke-width="2"/>
</svg>
